<?xml version="1.0" encoding="UTF-8" standalone="no"?>
<svg
   xmlns:dc="http://purl.org/dc/elements/1.1/"
   xmlns:cc="http://creativecommons.org/ns#"
   xmlns:rdf="http://www.w3.org/1999/02/22-rdf-syntax-ns#"
   xmlns:svg="http://www.w3.org/2000/svg"
   xmlns="http://www.w3.org/2000/svg"
   xmlns:sodipodi="http://sodipodi.sourceforge.net/DTD/sodipodi-0.dtd"
   xmlns:inkscape="http://www.inkscape.org/namespaces/inkscape"
   width="16"
   height="16"
   version="1.1"
   viewBox="0 0 16 16"
   id="svg5969"
   inkscape:version="0.91 r13725"
   sodipodi:docname="icon_futari.svg">
  <metadata
     id="metadata5979">
    <rdf:RDF>
      <cc:Work
         rdf:about="">
        <dc:format>image/svg+xml</dc:format>
        <dc:type
           rdf:resource="http://purl.org/dc/dcmitype/StillImage" />
        <dc:title></dc:title>
      </cc:Work>
    </rdf:RDF>
  </metadata>
  <defs
     id="defs5977" />
  <sodipodi:namedview
     pagecolor="#ffffff"
     bordercolor="#666666"
     borderopacity="1"
     objecttolerance="10"
     gridtolerance="10"
     guidetolerance="10"
     inkscape:pageopacity="0"
     inkscape:pageshadow="2"
     inkscape:window-width="1197"
     inkscape:window-height="808"
     id="namedview5975"
     showgrid="false"
     inkscape:zoom="29.5"
     inkscape:cx="8.7294665"
     inkscape:cy="7.3061632"
     inkscape:window-x="2581"
     inkscape:window-y="44"
     inkscape:window-maximized="0"
     inkscape:current-layer="svg5969" />
  <path
     inkscape:connector-curvature="0"
     style="display:inline;fill:#91f7ff;fill-opacity:0.99607843;stroke:none"
     d="m 6.8,2 0,2.4000004 2.4,0 L 9.2,2 6.8,2 Z M 2,4.4000004 l 0,2.4 2.4,0 0,-2.4 -2.4,0 z m 9.6,0 0,2.4 2.4,0 0,-2.4 -2.4,0 z m -4.8,2.4 0,2.4 2.4,0 0,-2.4 -2.4,0 z m -4.8,2.4 L 2,11.6 l 2.4,0 0,-2.3999996 -2.4,0 z m 9.6,0 0,2.3999996 2.4,0 0,-2.3999996 -2.4,0 z M 6.8,11.6 l 0,2.4 2.4,0 0,-2.4 -2.4,0 z"
     id="rect6285-6" />
</svg>
